<svg width="16" height="16" viewBox="0 0 16 16" fill="none" xmlns="http://www.w3.org/2000/svg">
<path d="M8 15H7C4.17157 15 2.75759 14.9998 1.87891 14.1211C1.00023 13.2424 1 11.8284 1 9V7C1 4.17157 1.00023 2.75759 1.87891 1.87891C2.75759 1.00023 4.17157 1 7 1H8V15Z" fill="#0078D7"/>
<path d="M9 1C11.8284 1 13.2424 1.00023 14.1211 1.87891C14.8895 2.64729 14.9859 3.82497 14.998 6H9V1Z" fill="#FFA800"/>
<path d="M12 11H9V7H12V11Z" fill="#E84654"/>
<path d="M15 9H13V7H15V9Z" fill="#00CB42"/>
<path d="M14.998 10C14.996 10.3597 14.9917 10.6922 14.9824 11H13V10H14.998Z" fill="#E84654"/>
<path d="M14.1211 14.1211C13.8214 14.4207 13.4591 14.616 13 14.7461V14H14.2314C14.1959 14.0411 14.16 14.0822 14.1211 14.1211Z" fill="#FFA800"/>
<path d="M14.9238 12C14.8866 12.3787 14.8287 12.7086 14.7461 13H13V12H14.9238Z" fill="#0063D7"/>
<path d="M12 14.9229C11.2261 14.999 10.2516 15 9 15V12H12V14.9229Z" fill="#29CB00"/>
</svg>
